<svg aria-hidden="true" style="position: absolute; width: 0; height: 0; overflow: hidden;" version="1.1" xmlns="http://www.w3.org/2000/svg" xmlns:xlink="http://www.w3.org/1999/xlink">
<defs>
<symbol id="icon-rs_school" viewBox="0 0 89 32">
<path d="M44.353 9.885l4.235-0.266q0.139 1.032 0.561 1.572 0.689 0.875 1.965 0.875 0.952 0 1.469-0.446c0.31-0.244 0.509-0.617 0.515-1.036v-0.001c-0.006-0.403-0.192-0.762-0.481-1l-0.002-0.002q-0.483-0.441-2.279-0.836-2.928-0.657-4.177-1.749c-0.772-0.65-1.259-1.616-1.259-2.697 0-0.029 0-0.059 0.001-0.088l-0 0.004c0.003-0.782 0.244-1.506 0.653-2.107l-0.008 0.013c0.476-0.691 1.134-1.226 1.904-1.542l0.028-0.010q1.289-0.565 3.544-0.565 2.761 0 4.21 1.028t1.725 3.267l-4.196 0.245q-0.161-0.966-0.702-1.414t-1.482-0.446c-0.517 0-0.907 0.111-1.168 0.33-0.24 0.186-0.393 0.474-0.393 0.798 0 0.003 0 0.005 0 0.008v-0c0.008 0.253 0.132 0.475 0.32 0.617l0.002 0.001q0.314 0.285 1.493 0.532 2.919 0.628 4.188 1.272t1.836 1.596c0.361 0.594 0.575 1.312 0.575 2.080 0 0.019-0 0.037-0 0.056l0-0.003c0 0.007 0 0.015 0 0.023 0 0.943-0.286 1.82-0.776 2.548l0.010-0.016c-0.525 0.783-1.254 1.392-2.111 1.76l-0.031 0.012q-1.377 0.604-3.469 0.604-3.674 0-5.090-1.414t-1.611-3.6zM1.010 14.657v-14.411h7.419q2.063 0 3.154 0.353c0.732 0.239 1.337 0.699 1.752 1.3l0.007 0.011c0.422 0.623 0.673 1.39 0.673 2.217 0 0.041-0.001 0.082-0.002 0.123l0-0.006c0.001 0.031 0.001 0.067 0.001 0.103 0 0.722-0.192 1.4-0.527 1.985l0.010-0.019c-0.348 0.588-0.822 1.066-1.388 1.409l-0.018 0.010c-0.451 0.254-0.974 0.451-1.528 0.564l-0.035 0.006c0.441 0.132 0.825 0.312 1.175 0.54l-0.017-0.011c0.267 0.223 0.502 0.469 0.707 0.739l0.008 0.011c0.223 0.261 0.429 0.551 0.606 0.86l0.015 0.028 2.155 4.188h-5.030l-2.377-4.409q-0.453-0.855-0.805-1.111c-0.298-0.209-0.668-0.334-1.067-0.334-0.009 0-0.018 0-0.026 0h-0.395v5.853zM5.476 6.082h1.881c0.435-0.033 0.837-0.103 1.225-0.207l-0.046 0.011c0.297-0.058 0.549-0.222 0.719-0.45l0.002-0.003c0.175-0.223 0.28-0.507 0.28-0.816 0-0.006-0-0.013-0-0.019v0.001c0.002-0.024 0.002-0.052 0.002-0.080 0-0.394-0.172-0.747-0.444-0.99l-0.001-0.001q-0.441-0.374-1.661-0.374h-1.959zM0 26.989l4.235-0.264q0.139 1.032 0.561 1.572 0.681 0.875 1.97 0.875 0.952 0 1.469-0.448c0.31-0.244 0.509-0.617 0.515-1.036v-0.001c-0.006-0.403-0.192-0.762-0.481-1l-0.002-0.002q-0.483-0.441-2.279-0.834-2.928-0.66-4.177-1.749c-0.772-0.651-1.259-1.618-1.259-2.699 0-0.029 0-0.058 0.001-0.087l-0 0.004c0.004-0.782 0.244-1.506 0.653-2.107l-0.008 0.013c0.476-0.691 1.134-1.226 1.904-1.542l0.028-0.010q1.289-0.565 3.544-0.565 2.761 0 4.21 1.028t1.725 3.267l-4.188 0.246q-0.161-0.966-0.702-1.416t-1.48-0.441q-0.775 0-1.168 0.322c-0.24 0.186-0.393 0.474-0.393 0.798 0 0.003 0 0.005 0 0.008v-0c0.008 0.253 0.132 0.476 0.32 0.619l0.002 0.001q0.314 0.285 1.493 0.53 2.919 0.628 4.188 1.272t1.836 1.596c0.361 0.594 0.575 1.313 0.575 2.081 0 0.018-0 0.036-0 0.054l0-0.003c0 0.007 0 0.016 0 0.024 0 0.943-0.286 1.819-0.775 2.547l0.010-0.016c-0.525 0.783-1.254 1.392-2.111 1.76l-0.031 0.012q-1.377 0.604-3.469 0.604-3.674 0-5.090-1.414t-1.625-3.597zM26.255 25.86l3.901 1.179c-0.233 1.045-0.663 1.964-1.252 2.757l0.014-0.019c-0.545 0.713-1.249 1.277-2.060 1.647l-0.034 0.014q-1.253 0.559-3.189 0.559-2.348 0-3.837-0.681t-2.577-2.402q-1.082-1.719-1.081-4.399 0-3.573 1.901-5.494t5.38-1.92q2.724 0 4.28 1.102t2.313 3.383l-3.93 0.875c-0.101-0.367-0.248-0.689-0.44-0.979l0.008 0.013c-0.239-0.329-0.545-0.594-0.899-0.779l-0.014-0.007c-0.341-0.174-0.745-0.276-1.172-0.276-0.013 0-0.027 0-0.040 0l0.002-0q-1.512 0-2.318 1.218-0.612 0.904-0.61 2.836 0 2.394 0.728 3.283t2.044 0.887q1.276 0 1.933-0.717t0.95-2.079zM33.585 17.351h4.45v5.038h4.864v-5.038h4.47v14.405h-4.47v-5.823h-4.864v5.828h-4.45zM50.14 24.562q0-3.524 1.965-5.493t5.476-1.965q3.595 0 5.541 1.933t1.951 5.407q0 2.527-0.85 4.143c-0.563 1.070-1.403 1.928-2.426 2.499l-0.031 0.016q-1.611 0.899-4.004 0.899-2.435 0-4.027-0.776c-1.099-0.553-1.983-1.395-2.573-2.427l-0.016-0.030q-1.008-1.678-1.007-4.206zM54.59 24.583q0 2.183 0.805 3.134t2.207 0.952q1.435 0 2.221-0.933t0.786-3.35q0-2.034-0.821-2.973t-2.226-0.937c-0.029-0.001-0.063-0.002-0.097-0.002-0.822 0-1.558 0.367-2.053 0.945l-0.003 0.004q-0.817 0.966-0.818 3.16z"></path>
<path d="M63.185 24.562q0-3.524 1.965-5.493t5.476-1.965q3.598 0 5.542 1.933t1.944 5.409q0 2.527-0.849 4.143c-0.564 1.069-1.403 1.928-2.426 2.499l-0.031 0.016q-1.611 0.899-4.004 0.899-2.437 0-4.027-0.776c-1.099-0.553-1.984-1.395-2.574-2.427l-0.016-0.030q-1.002-1.68-1.002-4.207zM67.637 24.583q0 2.183 0.805 3.134t2.21 0.954q1.435 0 2.221-0.933t0.786-3.35q0-2.034-0.82-2.973t-2.226-0.937c-0.031-0.001-0.067-0.002-0.104-0.002-0.821 0-1.556 0.366-2.051 0.944l-0.003 0.004q-0.82 0.966-0.818 3.16z"></path>
<path d="M77.649 17.351h4.452v10.858h6.947v3.544h-11.399z"></path>
</symbol>
<symbol id="icon-github" viewBox="0 0 32 32">
<path d="M16 0.395c-8.836 0-16 7.163-16 16 0 7.069 4.585 13.067 10.942 15.182 0.8 0.148 1.094-0.347 1.094-0.77 0-0.381-0.015-1.642-0.022-2.979-4.452 0.968-5.391-1.888-5.391-1.888-0.728-1.849-1.776-2.341-1.776-2.341-1.452-0.993 0.11-0.973 0.11-0.973 1.606 0.113 2.452 1.649 2.452 1.649 1.427 2.446 3.743 1.739 4.656 1.33 0.143-1.034 0.558-1.74 1.016-2.14-3.554-0.404-7.29-1.777-7.29-7.907 0-1.747 0.625-3.174 1.649-4.295-0.166-0.403-0.714-2.030 0.155-4.234 0 0 1.344-0.43 4.401 1.64 1.276-0.355 2.645-0.532 4.005-0.539 1.359 0.006 2.729 0.184 4.008 0.539 3.054-2.070 4.395-1.64 4.395-1.64 0.871 2.204 0.323 3.831 0.157 4.234 1.026 1.12 1.647 2.548 1.647 4.295 0 6.145-3.743 7.498-7.306 7.895 0.574 0.497 1.085 1.47 1.085 2.963 0 2.141-0.019 3.864-0.019 4.391 0 0.426 0.288 0.925 1.099 0.768 6.354-2.118 10.933-8.113 10.933-15.18 0-8.837-7.164-16-16-16z"></path>
</symbol>
</defs>
</svg>
